<svg viewBox="0 0 100 100" xmlns="http://www.w3.org/2000/svg" role="img" aria-label="EasyBet"><circle cx="48" cy="38" r="30" fill="#fff" fill-opacity=".1" class="lr" style="stroke:var(--ring,#1d3f73)" stroke-width="6"/>
<path d="M26 60 10 83" class="lr" style="stroke:var(--ring,#1d3f73)" stroke-width="9" stroke-linecap="round"/>
<path d="M26 60 10 83" stroke="#5aa0e6" stroke-width="3" stroke-linecap="round"/>
<g transform="rotate(-18 48 38)"><circle cx="48" cy="38" r="22" fill="#f08a24"/><path d="M26 38h44M48 16v44M33 22c8 8 8 24 0 32M63 22c-8 8-8 24 0 32" fill="none" stroke="#5a2a0a" stroke-width="1.7" stroke-linecap="round"/></g>
<ellipse cx="48" cy="66" rx="11" ry="3" fill="none" style="stroke:var(--ring,#1d3f73)" stroke-width="2"/>
<path d="M38 67l5 9M44 69l2 9M52 69l-2 9M58 67l-5 9" fill="none" style="stroke:var(--ring,#1d3f73)" stroke-width="1.3"/>
<g fill="#2368b5"><rect x="56" y="82" width="7" height="14"/><rect x="66" y="74" width="7" height="22"/><rect x="76" y="64" width="7" height="32"/><rect x="86" y="54" width="7" height="42"/></g>
<path d="M30 84 46 70l10 8 28-26" fill="none" stroke="#2368b5" stroke-width="5" stroke-linecap="round" stroke-linejoin="round"/>
<path d="M76 46 94 42 90 60z" fill="#2368b5"/></svg>